<?xml version="1.0" encoding="UTF-8" standalone="no"?>
<!DOCTYPE svg PUBLIC "-//W3C//DTD SVG 1.1//EN" "http://www.w3.org/Graphics/SVG/1.1/DTD/svg11.dtd">
<svg width="100%" height="100%" viewBox="0 0 460 120" version="1.1" xmlns="http://www.w3.org/2000/svg" xmlns:xlink="http://www.w3.org/1999/xlink" xml:space="preserve" xmlns:serif="http://www.serif.com/" style="fill-rule:evenodd;clip-rule:evenodd;stroke-linejoin:round;stroke-miterlimit:2;">
    <g id="layer1" transform="matrix(1.33333,0,0,1.33333,0,0)">
        <g id="White-S" serif:id="White S" transform="matrix(1,0,0,1,-122.097,-309.896)">
            <path d="M314.838,379.036C322.524,376.381 326.752,371.945 329.025,364.154C331.907,354.276 329.694,345.754 323.38,342.416C320.135,340.7 319.775,340.677 295.412,340.677C279.832,340.677 270.195,340.391 269.28,339.901C267.111,338.74 267.312,333.862 269.639,331.157L271.449,329.052L294.951,328.866C323.389,328.64 327.039,328.898 329.653,331.321C330.893,332.47 331.579,333.904 331.579,335.347C331.579,337.861 332.552,338.886 333.606,337.481C334.365,336.47 341.044,314.288 341.044,314.288C341.044,314.288 321.069,314.091 292.579,314.002C264.606,313.915 263.246,314.416 256.292,321.434C249.666,328.121 246.974,338.686 250.302,346.201C251.918,349.851 252.822,350.714 257.329,352.909C260.553,354.479 261.788,354.563 284.91,354.795L309.117,355.038L310.29,356.829C311.261,358.31 311.312,359.08 310.589,361.272C308.938,366.275 309.586,366.178 278.074,366.178L249.652,366.178L246.741,363.266C244.604,361.129 243.829,359.732 243.829,358.016C243.829,356.73 244.312,355.678 243.952,355.678C243.7,355.678 241.694,355.74 241.694,355.74C241.694,355.74 235.489,375.993 235.045,378.365L234.659,380.428L272.806,380.402C307.472,380.379 311.308,380.255 314.838,379.036L314.838,379.036Z" style="fill:white;fill-rule:nonzero;"/>
        </g>
        <g id="White-A" serif:id="White A" transform="matrix(1,0,0,1,-122.097,-309.896)">
            <path d="M370.995,376.303L406.911,376.303L370.995,376.303ZM351.677,375.79C353.204,373.306 357.457,367.006 361.128,361.788C367.677,352.479 373.515,343.99 384.673,327.552C391.476,317.53 392.138,316.754 392.63,318.231C397.25,332.109 401.342,346.05 400.971,346.65C400.671,347.135 395.858,347.427 388.165,347.427L375.839,347.427L371.591,353.81C369.255,357.32 367.518,360.367 367.731,360.58C367.944,360.793 376.35,360.998 386.411,361.036C396.472,361.075 405.247,361.39 405.91,361.736C406.574,362.083 407.533,363.984 408.042,365.96C408.552,367.936 409.227,370.227 409.545,371.052C409.862,371.877 410.548,373.902 411.07,375.553C411.592,377.203 412.67,380.155 412.67,380.155L441.533,380.27C441.533,380.27 441.23,379.212 441.007,378.509C440.843,377.993 439.332,378.355 437.807,378.107C431.374,377.061 431.716,378.23 425.556,360.487C414.737,329.323 409.641,315.55 408.908,314.967C408.214,314.416 363.272,314.734 363.272,314.734C363.272,314.734 364.127,315.701 365.634,316.42C368.683,317.874 369.724,320.29 368.479,323.022C367.702,324.727 360.175,335.394 348.419,351.449C345.138,355.929 340.48,362.342 338.068,365.699C331.19,375.272 327.922,378.749 321.138,378.927C320.952,378.932 321.022,380.517 321.022,380.517C321.022,380.517 334.539,380.916 343.052,380.555L348.899,380.306L351.677,375.79Z" style="fill:white;fill-rule:nonzero;"/>
        </g>
        <g id="White-P" serif:id="White P" transform="matrix(1,0,0,1,-122.097,-309.896)">
            <path d="M158.225,378.308C158.655,377.205 160.923,370.396 163.265,363.177C165.607,355.959 169.083,345.327 170.989,339.552L174.454,329.052L220.709,329.052L222.519,331.157C224.747,333.748 224.842,336.893 222.818,341.075C220.23,346.421 219.523,346.532 187.517,346.632L172.83,346.677L170.818,353.166C169.712,356.735 168.946,359.795 169.117,359.966C169.288,360.136 181.637,360.261 196.559,360.244L223.691,360.211L228.179,358.197C232.943,356.059 237.6,351.518 240.157,346.517C241.9,343.108 243.07,333.101 242.185,329.161C240.861,323.262 237.512,319.108 231.658,316.101L227.704,314.07L188.186,313.873C170.005,313.783 148.499,313.431 148.499,313.431C148.499,313.431 146.743,314.772 150.114,315.447C153.436,316.111 156.079,319.311 156.079,322.667C156.079,325.323 142.73,367.553 140.666,371.428C138.106,376.231 135.225,378.662 126.869,378.895C126.667,378.901 126.839,380.496 126.839,380.496L156.453,380.582C156.453,380.582 157.486,380.206 158.225,378.308L158.225,378.308Z" style="fill:white;fill-rule:nonzero;"/>
        </g>
        <g id="Black-PSA" serif:id="Black PSA" transform="matrix(1,0,0,1,-122.097,-309.896)">
            <path d="M125.745,391.216C121.725,385.161 121.481,384.165 122.848,379.359L124.038,375.177L127.283,375.177C129.068,375.177 131.72,374.609 133.176,373.915C136.238,372.455 136.4,372.085 143.757,349.826C151.076,327.682 150.816,330.439 146.29,323.059L142.425,316.756L143.735,313.326L145.045,309.896L185.724,309.959C227.787,310.023 229.457,310.132 235.315,313.168C238.113,314.619 242.659,319.074 245.091,322.749C246.156,324.36 247.312,325.677 247.659,325.677C248.006,325.677 248.779,324.749 249.376,323.615C251.127,320.288 257.246,314.67 260.706,312.905C266.306,310.048 272.713,310.091 307.733,310.293L344.263,310.078L347.185,313.94C348.793,316.064 350.308,318.162 350.552,318.602C350.797,319.042 348.842,325.782 346.279,333.602C341.528,348.099 341.921,348.235 339.852,347.802C338.547,347.53 336.723,348.721 336.666,348.928C336.442,349.734 339.318,356.428 339.889,356.428C340.456,356.428 346.338,348.836 350.35,342.928C351.33,341.484 352.328,340.134 352.568,339.928C353.174,339.408 360.149,329.587 361.842,326.87C363.049,324.933 363.086,324.538 362.126,323.835C361.518,323.391 360.157,321.754 359.1,320.196C357.421,317.721 357.28,317.062 357.988,314.959C359.496,310.471 358.131,310.677 386.374,310.677L412.484,310.677L416.263,314.723C419.031,317.775 422.996,324.817 422.996,324.817L438.632,371.346C438.632,371.346 438.697,372.543 439.882,374.099C440.826,375.339 445.099,377.275 445.368,377.995C445.637,378.714 449.858,386.064 451.289,388.731C452.242,390.508 452.163,390.84 450.368,393.579L449.156,395.428L433.636,395.428C422.347,395.428 415.799,394.958 414.791,394.535C412.636,393.631 411.926,390.408 411.926,390.408L406.911,376.303L370.995,376.303L364.363,385.865L357.73,395.428L343.401,395.428C331.395,395.428 328.86,395.236 327.763,394.243C326.646,393.233 324.914,393.114 323.421,393.964C322.021,394.763 314.206,395.053 279.09,395.053L235.226,395.053L231.931,389.639L228.636,384.225L229.919,380.639C230.626,378.667 231.39,376.071 231.619,374.871C231.983,372.959 231.859,372.76 230.619,373.265C226.389,374.986 222.08,375.275 198.634,375.408L172.99,375.553L169.758,385.431L166.527,395.31L128.477,395.333L125.745,391.217L125.745,391.216ZM158.225,378.308C158.655,377.205 160.923,370.396 163.265,363.177C165.607,355.959 169.083,345.327 170.989,339.552L174.454,329.052L220.709,329.052L222.519,331.157C224.747,333.748 224.842,336.893 222.818,341.075C220.23,346.421 219.523,346.532 187.517,346.632L172.83,346.677L170.818,353.166C169.712,356.735 168.946,359.795 169.117,359.966C169.288,360.136 181.637,360.261 196.559,360.244L223.691,360.211L228.179,358.197C232.943,356.059 237.6,351.518 240.157,346.517C241.9,343.108 243.07,333.101 242.185,329.161C240.861,323.262 237.512,319.108 231.658,316.101L227.704,314.07L188.186,313.873C170.005,313.783 148.499,313.431 148.499,313.431C148.499,313.431 146.743,314.772 150.114,315.447C153.436,316.111 156.079,319.311 156.079,322.667C156.079,325.323 142.73,367.553 140.666,371.428C138.106,376.231 135.225,378.662 126.869,378.895C126.667,378.901 126.839,380.496 126.839,380.496L156.453,380.582C156.453,380.582 157.486,380.206 158.225,378.308L158.225,378.308ZM351.677,375.79C353.204,373.306 357.457,367.006 361.128,361.788C367.677,352.479 373.515,343.99 384.673,327.552C391.476,317.53 392.138,316.754 392.63,318.231C397.25,332.109 401.342,346.05 400.971,346.65C400.671,347.135 395.858,347.427 388.165,347.427L375.839,347.427L371.591,353.81C369.255,357.32 367.518,360.367 367.731,360.58C367.944,360.793 376.35,360.998 386.411,361.036C396.472,361.075 405.247,361.39 405.91,361.736C406.574,362.083 407.533,363.984 408.042,365.96C408.552,367.936 409.227,370.227 409.545,371.052C409.862,371.877 410.548,373.902 411.07,375.553C411.592,377.203 412.67,380.155 412.67,380.155L441.533,380.27C441.533,380.27 441.23,379.212 441.007,378.509C440.843,377.993 439.332,378.355 437.807,378.107C431.374,377.061 431.716,378.23 425.556,360.487C414.737,329.323 409.641,315.55 408.908,314.967C408.214,314.416 363.272,314.734 363.272,314.734C363.272,314.734 364.127,315.701 365.634,316.42C368.683,317.874 369.724,320.29 368.479,323.022C367.702,324.727 360.175,335.394 348.419,351.449C345.138,355.929 340.48,362.342 338.068,365.699C331.19,375.272 327.922,378.749 321.138,378.927C320.952,378.932 321.022,380.517 321.022,380.517C321.022,380.517 334.539,380.916 343.052,380.555L348.899,380.306L351.677,375.79ZM314.838,379.036C322.524,376.381 326.752,371.945 329.025,364.154C331.907,354.276 329.694,345.754 323.38,342.416C320.135,340.7 319.775,340.677 295.412,340.677C279.832,340.677 270.195,340.391 269.28,339.901C267.111,338.74 267.312,333.862 269.639,331.157L271.449,329.052L294.951,328.866C323.389,328.64 327.039,328.898 329.653,331.321C330.893,332.47 331.579,333.904 331.579,335.347C331.579,337.861 332.552,338.886 333.606,337.481C334.365,336.47 341.044,314.288 341.044,314.288C341.044,314.288 321.069,314.091 292.579,314.002C264.606,313.915 263.246,314.416 256.292,321.434C249.666,328.121 246.974,338.686 250.302,346.201C251.918,349.851 252.822,350.714 257.329,352.909C260.553,354.479 261.788,354.563 284.91,354.795L309.117,355.038L310.29,356.829C311.261,358.31 311.312,359.08 310.589,361.272C308.938,366.275 309.586,366.178 278.074,366.178L249.652,366.178L246.741,363.266C244.604,361.129 243.829,359.732 243.829,358.016C243.829,356.73 244.312,355.678 243.952,355.678C243.7,355.678 241.694,355.74 241.694,355.74C241.694,355.74 235.489,375.993 235.045,378.365L234.659,380.428L272.806,380.402C307.472,380.379 311.308,380.255 314.838,379.036L314.838,379.036Z" style="fill-rule:nonzero;"/>
        </g>
        <g id="Trademark" transform="matrix(0.414459,0,0,0.471696,137.74,60.8851)">
            <path d="M479.59,34.516C477.13,34.516 475.028,35.286 473.285,36.827C471.551,38.359 470.684,40.21 470.684,42.379C470.684,44.566 471.546,46.429 473.271,47.969C475.005,49.509 477.111,50.28 479.59,50.28C482.069,50.28 484.175,49.509 485.909,47.969C487.644,46.429 488.511,44.566 488.511,42.379C488.511,40.21 487.644,38.359 485.909,36.827C484.166,35.286 482.059,34.516 479.59,34.516ZM489.981,42.379C489.981,44.905 488.968,47.062 486.942,48.851C484.915,50.64 482.465,51.534 479.59,51.534C476.715,51.534 474.27,50.64 472.253,48.851C470.245,47.071 469.241,44.913 469.241,42.379C469.241,39.87 470.255,37.725 472.281,35.945C474.298,34.173 476.734,33.286 479.59,33.286C482.465,33.286 484.915,34.173 486.942,35.945C488.968,37.717 489.981,39.862 489.981,42.379ZM482.304,40.392C482.304,39.663 482.052,39.174 481.548,38.926C481.044,38.678 480.236,38.553 479.124,38.553L477.413,38.553L477.413,42.181L479.222,42.181C480.071,42.181 480.707,42.106 481.131,41.957C481.913,41.684 482.304,41.162 482.304,40.392ZM479.392,37.348C480.806,37.348 481.843,37.469 482.502,37.709C483.68,38.139 484.27,38.984 484.27,40.243C484.27,41.137 483.897,41.795 483.153,42.218C482.757,42.441 482.205,42.603 481.499,42.702C482.394,42.826 483.049,43.154 483.464,43.684C483.878,44.214 484.086,44.731 484.086,45.236L484.086,45.969C484.086,46.201 484.095,46.45 484.114,46.715C484.133,46.98 484.166,47.153 484.213,47.236L484.284,47.36L482.403,47.36C482.394,47.327 482.385,47.294 482.375,47.261C482.366,47.228 482.356,47.191 482.347,47.149L482.304,46.826L482.304,46.031C482.304,44.872 481.946,44.106 481.23,43.733C480.806,43.518 480.061,43.41 478.996,43.41L477.413,43.41L477.413,47.36L475.405,47.36L475.405,37.348L479.392,37.348Z" style="fill-rule:nonzero;"/>
        </g>
    </g>
</svg>
